<svg xmlns="http://www.w3.org/2000/svg" width="16" height="16" viewBox="0 0 16 16">
    <g fill="none" fill-rule="evenodd">
        <g fill="#75BB00" fill-rule="nonzero">
            <path d="M9.966 2.168l-.542-.148a.244.244 0 0 0-.205.022.284.284 0 0 0-.135.17L5.826 13.467a.26.26 0 0 0 .022.213.283.283 0 0 0 .17.135l.541.149c.07.023.139.016.206-.022a.284.284 0 0 0 .135-.17l3.258-11.255a.26.26 0 0 0-.022-.214.283.283 0 0 0-.17-.135zM5.084 4.365a.275.275 0 0 0-.088-.2l-.437-.436a.277.277 0 0 0-.401 0L.088 7.79a.275.275 0 0 0 0 .401l4.07 4.063a.276.276 0 0 0 .401 0l.437-.436a.275.275 0 0 0 0-.401L1.564 7.992l3.432-3.426a.275.275 0 0 0 .088-.2zM15.896 7.791l-4.07-4.062a.277.277 0 0 0-.2-.087.277.277 0 0 0-.202.087l-.436.436a.275.275 0 0 0 0 .4l3.432 3.427-3.432 3.426a.275.275 0 0 0 0 .401l.436.436a.276.276 0 0 0 .402 0l4.07-4.063a.276.276 0 0 0 0-.4z"/>
        </g>
    </g>
</svg>
