<svg xmlns="http://www.w3.org/2000/svg" width="12" height="12" viewBox="0 0 12 12">
    <path fill="#52A6D8" fill-rule="evenodd" d="M5.75.012C2.855.012.5 2.26.5 5.053c0 1.604.788 3.099 2.12 4.05v2.4c0 .186.113.354.286.428a.485.485 0 0 0 .515-.084l1.96-1.764c.124.008.247.012.369.012 2.895 0 5.25-2.248 5.25-5.042C11 2.257 8.643.012 5.75.012zm0 9.149c-.16 0-.323-.009-.484-.026a.484.484 0 0 0-.375.12L3.575 10.44V8.857a.465.465 0 0 0-.215-.39C2.167 7.7 1.455 6.425 1.455 5.053 1.455 2.79 3.38.946 5.75.946c2.369 0 4.295 1.843 4.295 4.107 0 2.265-1.926 4.108-4.295 4.108z"/>
</svg>
