<svg xmlns="http://www.w3.org/2000/svg" viewBox="0 0 98 22">
  <g fill="none" fill-rule="evenodd">
    <path fill="#75BB00" d="M34.647 17.73V6.694h-1.853v-2.16h1.853V0h2.34v4.533h2.374v2.16h-2.373V17.73h-2.341zm-15.914-6.684c0 1.335.434 2.457 1.31 3.36.876.903 1.948 1.355 3.215 1.355 1.154 0 2.175-.454 3.061-1.36.882-.908 1.324-1.972 1.324-3.186 0-1.296-.438-2.405-1.314-3.33C25.455 6.96 24.412 6.5 23.21 6.5c-1.235 0-2.291.44-3.167 1.318-.876.883-1.31 1.956-1.31 3.228zm8.792 6.685v-1.62a6.328 6.328 0 0 1-2.014 1.436 5.93 5.93 0 0 1-2.374.483c-1.963 0-3.596-.66-4.893-1.985-1.3-1.324-1.95-2.981-1.95-4.973 0-.928.163-1.81.487-2.641a6.667 6.667 0 0 1 1.391-2.193c.657-.695 1.378-1.212 2.158-1.542.78-.331 1.668-.499 2.666-.499.896 0 1.719.16 2.47.483.753.318 1.44.802 2.06 1.45V4.534H29.9V17.73h-2.375zM2.282 11.046c0 1.305.433 2.415 1.3 3.336.869.921 1.904 1.38 3.108 1.38 1.227 0 2.28-.441 3.16-1.325.88-.884 1.318-1.956 1.318-3.22 0-1.336-.436-2.453-1.307-3.361C8.991 6.952 7.925 6.5 6.664 6.5c-1.155 0-2.175.453-3.057 1.363-.886.904-1.325 1.968-1.325 3.182zm.07 5.088V22H0V4.533h2.376v1.62c.603-.623 1.272-1.1 2.013-1.421a5.848 5.848 0 0 1 2.37-.486c1.975 0 3.608.657 4.908 1.978 1.299 1.32 1.95 2.976 1.95 4.968 0 .918-.161 1.794-.487 2.625a6.864 6.864 0 0 1-1.401 2.22c-.658.696-1.377 1.21-2.158 1.54-.782.336-1.67.498-2.667.498a6.27 6.27 0 0 1-2.467-.482 6.493 6.493 0 0 1-2.085-1.46z"/>
    <path fill="#2EBDFE" d="M50.048 6.288l-1.563 1.71c-.757-.811-1.654-1.656-2.382-1.698-.596-.04-1.074.324-1.367.759-.263.385-.186 1.041.098 1.43.27.373.673.641.836.739.323.198.487.306.964.562l1.248.683c.716.375 1.296.888 1.594 1.344.349.53.564 1.27.564 2.041 0 .908-.227 1.97-1.007 2.741-.782.767-1.766 1.167-3.08 1.167-1.745 0-3.142-.739-4.183-2.217l1.38-1.615c.354.443.894 1.006 1.366 1.28.473.273.968.42 1.335.42.405 0 .929-.134 1.31-.603.26-.318.549-.69.516-1.23-.044-.717-.57-1.319-1.477-1.707l-1.421-.784c-1.835-1.022-2.473-1.88-2.473-3.47 0-1.024.268-1.88 1-2.608.73-.724 1.663-1.088 2.8-1.088.78 0 1.512.183 2.197.552.686.37 1.267.9 1.745 1.592zm36.599 4.683c0 1.313.433 2.43 1.303 3.358.867.928 1.904 1.39 3.113 1.39 1.228 0 2.284-.444 3.163-1.334.88-.89 1.321-1.97 1.321-3.243 0-1.345-.437-2.47-1.308-3.384-.873-.91-1.939-1.364-3.202-1.364-1.157 0-2.178.456-3.064 1.372-.885.91-1.326 1.981-1.326 3.205zm.07 5.122V22h-2.353V4.412h2.379v1.631a6.234 6.234 0 0 1 2.017-1.43 5.827 5.827 0 0 1 2.374-.49c1.977 0 3.612.661 4.913 1.992C97.348 7.443 98 9.111 98 11.117c0 .924-.161 1.806-.49 2.643a6.855 6.855 0 0 1-1.402 2.235c-.66.701-1.38 1.22-2.16 1.552-.782.338-1.672.5-2.672.5a6.244 6.244 0 0 1-2.47-.485c-.759-.328-1.452-.815-2.089-1.469zm-17.163-5.122c0 1.343.436 2.473 1.316 3.382.875.91 1.946 1.364 3.217 1.364 1.158 0 2.178-.457 3.065-1.368.881-.915 1.325-1.986 1.325-3.208 0-1.305-.436-2.423-1.313-3.355-.877-.929-1.92-1.393-3.126-1.393-1.236 0-2.293.443-3.168 1.327-.88.889-1.316 1.97-1.316 3.25zm8.805 6.73v-1.63a6.297 6.297 0 0 1-2.018 1.445 5.886 5.886 0 0 1-2.373.487c-1.968 0-3.601-.666-4.902-1.999-1.302-1.333-1.954-3.002-1.954-5.008 0-.934.164-1.821.489-2.659a6.704 6.704 0 0 1 1.393-2.208c.658-.7 1.377-1.22 2.158-1.552.783-.335 1.673-.503 2.674-.503.896 0 1.72.16 2.474.486.756.32 1.44.808 2.06 1.46V4.413h2.377v13.29H78.36zm-22.916 0H53.09V4.411h2.26v1.51c.492-.595 1.033-1.033 1.625-1.31.59-.28 1.268-.418 2.03-.418 1.714 0 3.028.512 3.942 1.535.92 1.024 1.377 2.49 1.377 4.397v7.576h-2.367v-7.057c0-1.409-.26-2.453-.776-3.135-.517-.68-1.313-1.02-2.39-1.02-1.175 0-2.027.4-2.554 1.202-.527.801-.793 2.125-.793 3.97v6.04z"/>
  </g>
</svg>
