<svg xmlns="http://www.w3.org/2000/svg" viewBox="0 0 152 33">
    <g fill="none" fill-rule="evenodd">
        <path fill="#FFF" d="M3.35 16.961c0 1.908.638 3.536 1.912 4.883 1.273 1.346 2.795 2.021 4.563 2.021 1.803 0 3.351-.648 4.642-1.942 1.292-1.294 1.938-2.866 1.938-4.716 0-1.957-.64-3.596-1.92-4.92-1.28-1.323-2.845-1.985-4.695-1.985-1.698 0-3.196.666-4.493 1.995C3.999 13.626 3.35 15.18 3.35 16.96m.105 7.448V33H0V7.421h3.49v2.371c.884-.913 1.87-1.606 2.958-2.081A8.636 8.636 0 0 1 9.931 7c2.896 0 5.298.966 7.207 2.898C19.046 11.831 20 14.254 20 17.172c0 1.346-.239 2.628-.716 3.846a10.01 10.01 0 0 1-2.059 3.25c-.966 1.02-2.021 1.772-3.167 2.258s-2.453.73-3.918.73c-1.304 0-2.511-.238-3.622-.713-1.111-.475-2.132-1.185-3.063-2.134M27.581 16.905c0 1.93.643 3.55 1.93 4.856 1.286 1.307 2.861 1.961 4.725 1.961 1.7 0 3.2-.657 4.498-1.97 1.297-1.312 1.947-2.847 1.947-4.604 0-1.875-.643-3.479-1.93-4.815-1.287-1.335-2.815-2.003-4.585-2.003-1.817 0-3.369.636-4.655 1.908-1.287 1.272-1.93 2.827-1.93 4.667zm12.925 9.662v-2.342c-.885.912-1.871 1.603-2.96 2.072A8.728 8.728 0 0 1 34.06 27c-2.888 0-5.286-.956-7.196-2.871-1.91-1.914-2.865-4.311-2.865-7.19 0-1.342.239-2.614.717-3.817a9.627 9.627 0 0 1 2.042-3.173c.967-1.007 2.024-1.749 3.172-2.229 1.146-.48 2.453-.72 3.92-.72 1.316 0 2.527.23 3.633.694 1.106.462 2.114 1.162 3.022 2.098V7.485H44v19.082h-3.494zM50.822 27V10.814H48V7.648h2.822V1h3.564v6.648H58v3.166h-3.614V27zM81.356 26H78V7.306h3.22V9.43c.7-.839 1.472-1.453 2.314-1.844.841-.391 1.804-.586 2.89-.586 2.44 0 4.313.72 5.618 2.158C93.347 10.597 94 12.66 94 15.344V26h-3.374v-9.925c0-1.982-.367-3.453-1.1-4.41-.735-.957-1.871-1.436-3.407-1.436-1.673 0-2.885.564-3.637 1.691-.751 1.127-1.126 2.988-1.126 5.583V26zM73 10.147l-2.268 2.513c-1.096-1.187-2.396-2.431-3.45-2.496-.864-.053-1.556.477-1.982 1.116-.378.566-.27 1.529.141 2.103.394.55.977.938 1.211 1.083.472.291.71.452 1.4.826l1.81 1.002c1.037.55 1.878 1.305 2.311 1.973.504.776.817 1.864.817 2.997 0 1.332-.328 2.892-1.462 4.023C70.395 26.417 68.97 27 67.064 27c-2.532 0-4.554-1.085-6.064-3.253l2.004-2.375c.51.652 1.293 1.478 1.979 1.88.686.403 1.4.621 1.933.621.585 0 1.345-.2 1.898-.887.377-.469.796-1.015.749-1.808-.063-1.052-.827-1.937-2.14-2.506l-2.06-1.149c-2.659-1.505-3.586-2.764-3.586-5.096 0-1.502.39-2.761 1.449-3.827C64.285 7.533 65.639 7 67.288 7c1.127 0 2.188.272 3.183.813.995.542 1.838 1.32 2.529 2.334"/>
        <path fill="#40D34A" d="M101.58 16.905c0 1.93.644 3.55 1.93 4.856 1.287 1.307 2.862 1.961 4.725 1.961 1.7 0 3.2-.657 4.499-1.97 1.297-1.312 1.947-2.847 1.947-4.604 0-1.875-.644-3.479-1.93-4.815-1.287-1.335-2.816-2.003-4.585-2.003-1.817 0-3.369.636-4.656 1.908-1.286 1.272-1.93 2.827-1.93 4.667zm12.925 9.662v-2.342c-.885.912-1.87 1.603-2.96 2.072a8.729 8.729 0 0 1-3.484.703c-2.888 0-5.288-.956-7.197-2.871-1.91-1.914-2.864-4.311-2.864-7.19 0-1.342.238-2.614.716-3.817a9.615 9.615 0 0 1 2.044-3.173c.965-1.007 2.022-1.749 3.17-2.229 1.146-.48 2.454-.72 3.921-.72 1.316 0 2.527.23 3.633.694 1.107.462 2.114 1.162 3.021 2.098V7.485H118v19.082h-3.495zM126.35 16.961c0 1.908.638 3.536 1.912 4.883 1.274 1.346 2.794 2.021 4.564 2.021 1.804 0 3.35-.648 4.642-1.942 1.292-1.294 1.938-2.866 1.938-4.716 0-1.957-.64-3.596-1.92-4.92-1.28-1.323-2.845-1.985-4.694-1.985-1.7 0-3.198.666-4.495 1.995-1.297 1.329-1.947 2.883-1.947 4.664m.106 7.448V33H123V7.421h3.49v2.371c.884-.913 1.87-1.606 2.958-2.081A8.64 8.64 0 0 1 132.931 7c2.896 0 5.3.966 7.207 2.898 1.909 1.933 2.862 4.356 2.862 7.274 0 1.346-.238 2.628-.715 3.846a9.983 9.983 0 0 1-2.06 3.25c-.966 1.02-2.02 1.772-3.167 2.258-1.146.486-2.451.73-3.918.73-1.303 0-2.51-.238-3.62-.713-1.113-.475-2.134-1.185-3.064-2.134M148 27h3V8h-3z"/>
        <circle cx="149.5" cy="2.5" r="2.5" fill="#40D34A"/>
    </g>
</svg>
