<svg xmlns="http://www.w3.org/2000/svg" viewBox="0 0 214 37">
    <g fill="none" fill-rule="evenodd">
        <path fill="#75BB00" d="M44.552 26.513V12.496H42.17v-2.74h2.38V4h3.011v5.756h3.05v2.74h-3.05v14.017h-3.01zm-20.464-8.487c0 1.696.563 3.12 1.684 4.267 1.13 1.146 2.505 1.717 4.139 1.717 1.484 0 2.794-.573 3.934-1.727 1.135-1.15 1.7-2.5 1.7-4.04 0-1.65-.56-3.055-1.69-4.232-1.124-1.17-2.46-1.755-4.01-1.755-1.587 0-2.942.559-4.073 1.672-1.121 1.118-1.684 2.485-1.684 4.098zm11.308 8.487v-2.058c-.775.8-1.64 1.41-2.592 1.826a7.695 7.695 0 0 1-3.05.612c-2.524 0-4.624-.837-6.294-2.523-1.67-1.68-2.504-3.782-2.504-6.316 0-1.176.21-2.292.622-3.349a8.515 8.515 0 0 1 1.791-2.787c.843-.88 1.77-1.536 2.773-1.957 1.001-.422 2.144-.63 3.429-.63 1.149 0 2.21.2 3.178.607.966.406 1.85 1.021 2.647 1.842V9.756h3.055v16.757h-3.055zM2.934 18.026c0 1.656.559 3.066 1.671 4.234 1.115 1.17 2.449 1.75 3.997 1.75 1.578 0 2.935-.558 4.066-1.68 1.13-1.124 1.694-2.484 1.694-4.088 0-1.696-.564-3.118-1.68-4.266-1.124-1.147-2.491-1.72-4.11-1.72-1.487 0-2.799.573-3.934 1.726-1.134 1.152-1.704 2.503-1.704 4.044zm.091 6.457v7.453H0V9.756h3.057v2.055c.776-.792 1.636-1.394 2.59-1.8a7.523 7.523 0 0 1 3.046-.618c2.539 0 4.638.834 6.313 2.51 1.67 1.675 2.502 3.778 2.502 6.308a8.885 8.885 0 0 1-.625 3.333 8.738 8.738 0 0 1-1.802 2.821c-.844.882-1.772 1.533-2.774 1.952-1.002.424-2.145.633-3.431.633-1.137 0-2.196-.202-3.165-.614-.978-.414-1.87-1.027-2.686-1.853z"/>
        <path fill="#00A5C4" d="M64.199 12.12l-2.006 2.16c-.973-1.028-2.123-2.09-3.062-2.145-.764-.053-1.375.41-1.752.958-.336.486-.239 1.313.124 1.805.349.469.864.806 1.076.93.416.248.623.388 1.236.71l1.61.86c.914.471 1.656 1.12 2.042 1.696.445.667.726 1.598.726 2.574 0 1.143-.289 2.482-1.298 3.453-1.002.97-2.264 1.472-3.958 1.472-2.24 0-4.027-.93-5.365-2.794l1.775-2.041c.45.562 1.145 1.272 1.75 1.617.609.345 1.241.533 1.714.533.522 0 1.19-.171 1.677-.761.339-.405.71-.876.663-1.555-.052-.9-.724-1.663-1.888-2.153l-1.83-.985c-2.353-1.291-3.172-2.377-3.172-4.376 0-1.292.343-2.372 1.282-3.29.935-.913 2.137-1.37 3.597-1.37.997 0 1.934.233 2.822.695A6.388 6.388 0 0 1 64.2 12.12zm46.993 5.907c0 1.654.56 3.065 1.678 4.232 1.113 1.171 2.443 1.751 3.994 1.751 1.581 0 2.93-.558 4.064-1.68 1.131-1.123 1.692-2.484 1.692-4.088 0-1.695-.56-3.117-1.68-4.266-1.12-1.147-2.487-1.72-4.108-1.72-1.488 0-2.799.573-3.931 1.727-1.14 1.15-1.709 2.502-1.709 4.044zm.093 6.456v7.453h-3.023V9.756h3.055v2.056a7.995 7.995 0 0 1 2.586-1.802 7.55 7.55 0 0 1 3.052-.617c2.537 0 4.643.834 6.308 2.51 1.668 1.676 2.509 3.779 2.509 6.308a9.002 9.002 0 0 1-.629 3.332 8.744 8.744 0 0 1-1.801 2.822c-.842.882-1.77 1.534-2.772 1.952-1.006.423-2.15.633-3.43.633-1.141 0-2.2-.202-3.17-.614-.974-.414-1.869-1.027-2.685-1.853zm-22.038-6.456c0 1.695.558 3.12 1.689 4.266 1.125 1.146 2.495 1.717 4.13 1.717 1.486 0 2.797-.573 3.936-1.726 1.135-1.151 1.7-2.5 1.7-4.042 0-1.65-.562-3.054-1.686-4.23-1.122-1.171-2.464-1.755-4.01-1.755-1.587 0-2.945.558-4.07 1.671-1.13 1.118-1.69 2.485-1.69 4.099zm11.306 8.486v-2.058c-.774.799-1.638 1.41-2.592 1.826a7.677 7.677 0 0 1-3.049.612c-2.526 0-4.62-.837-6.295-2.523-1.67-1.68-2.505-3.782-2.505-6.315 0-1.178.21-2.293.625-3.35a8.492 8.492 0 0 1 1.79-2.788c.848-.879 1.77-1.536 2.774-1.956 1.002-.421 2.147-.63 3.428-.63 1.153 0 2.211.199 3.183.606.963.406 1.846 1.022 2.64 1.844V9.756h3.053v16.757h-3.052zm-29.423 0h-3.027V9.756h2.903v1.903c.635-.753 1.329-1.303 2.088-1.649.76-.354 1.624-.532 2.606-.532 2.2 0 3.887.644 5.063 1.938 1.178 1.292 1.763 3.14 1.763 5.545v9.552H79.49v-8.899c0-1.777-.332-3.093-.996-3.952-.662-.857-1.685-1.287-3.069-1.287-1.511 0-2.603.507-3.278 1.515-.68 1.008-1.016 2.679-1.016 5.006v7.617z"/>
        <g>
            <text fill="#FFF" font-family="AndaleMono, Andale Mono" font-size="20" transform="translate(130 -3)">
                <tspan x="20" y="15.098">open</tspan> <tspan x="20" y="35.098">api</tspan>
            </text>
            <g stroke="#75BB00" stroke-width="4">
                <path d="M143 2h-2a3 3 0 0 0-3 3v9a4 4 0 0 1-4 4h-1M144 34h-3a3 3 0 0 1-3-3v-9a4 4 0 0 0-4-4h-1"/>
            </g>
            <g stroke="#75BB00" stroke-width="4">
                <path d="M204 2h2a3 3 0 0 1 3 3v9a4 4 0 0 0 4 4h1M203 34h3a3 3 0 0 0 3-3v-9a4 4 0 0 1 4-4h1"/>
            </g>
        </g>
    </g>
</svg>
