<svg xmlns="http://www.w3.org/2000/svg" width="16" height="16" viewBox="0 0 16 16">
    <path fill="#52A6D8" fill-rule="nonzero" d="M14.986 1.014a3.472 3.472 0 0 0-4.905 0L.183 10.913A.628.628 0 0 0 0 11.35V15.374c0 .346.28.626.625.626h4.02a.629.629 0 0 0 .443-.183l9.898-9.898a3.472 3.472 0 0 0 0-4.905zM1.25 14.75v-1.886l1.886 1.886H1.25zm3.396-.259l-3.137-3.137 7.81-7.81 1.126 1.127-4.197 4.197a.625.625 0 1 0 .884.884l4.197-4.197 1.127 1.126-7.81 7.81zm9.456-9.456l-.763.762-3.136-3.136.762-.763a2.22 2.22 0 0 1 3.137 0 2.22 2.22 0 0 1 0 3.137z"/>
</svg>
