<svg xmlns="http://www.w3.org/2000/svg" width="16" height="16" viewBox="0 0 16 16">
    <g fill="#75BB00" fill-rule="nonzero">
        <path d="M15.034 1.029H.966A.957.957 0 0 0 0 1.973v9.501c0 .521.433.945.966.945h4.82v.688c0 .63-.524 1.143-1.168 1.143H3.556a.365.365 0 0 0-.37.36c0 .2.166.361.37.361h8.888a.365.365 0 0 0 .37-.36c0-.2-.166-.361-.37-.361h-1.062c-.644 0-1.169-.513-1.169-1.143v-.688h4.821a.957.957 0 0 0 .966-.944V1.973a.957.957 0 0 0-.966-.944zm-8.912 13.22a1.83 1.83 0 0 0 .402-1.142v-.688h2.952v.688c0 .43.15.827.402 1.143H6.122zm9.14-2.774a.226.226 0 0 1-.228.223H.966a.226.226 0 0 1-.228-.223V9.578h14.524v1.897zm0-2.618H.738V1.973c0-.123.102-.223.228-.223h14.068c.126 0 .228.1.228.223v6.884z"/>
        <ellipse cx="8" cy="10.638" rx="1" ry="1"/>
        <path d="M8.632 3.514a.375.375 0 0 0-.521 0l-2.607 2.55a.355.355 0 0 0 0 .51.372.372 0 0 0 .522 0l2.606-2.55a.355.355 0 0 0 0-.51zM10.177 4.992a.375.375 0 0 0-.521 0L8.617 6.008a.355.355 0 0 0 0 .51.372.372 0 0 0 .522 0l1.038-1.016a.355.355 0 0 0 0-.51z"/>
    </g>
</svg>
